# Blender v3.0.0 OBJ File: 'Sketchfab_2017_07_19_22_11_37.blend'
# www.blender.org
mtllib spaceship-3.mtl
o Cube_Cube.001
v -1.751085 -3.198673 -0.694753
v -0.392383 -1.370860 1.955101
v 2.115342 -3.198673 -0.694753
v 1.631495 -1.370860 1.955101
v -1.142965 -3.739593 -0.599131
v -0.023491 -1.827813 1.774778
v 1.402931 -3.739593 -0.599131
v 1.262603 -1.827813 1.774778
v -2.000000 -1.115040 -0.605343
v -2.334620 -0.595123 0.433419
v 0.000000 -0.500000 -0.132879
v -0.324745 -0.361585 0.732601
v 1.500000 -0.500000 -0.367669
v 0.927349 -0.278136 0.553283
v -0.753661 -2.719096 0.000000
v 0.500000 -2.720110 0.000000
v 1.000000 -3.063971 -0.500000
v 2.500000 -0.700000 -0.520775
v 2.500000 -0.500000 0.500000
v 2.000000 -0.500000 1.000000
v 3.000000 -0.263311 1.000000
v -3.500000 -0.500000 -0.435296
v -3.059187 -0.500000 -0.766352
v -1.751085 3.198673 -0.694753
v -0.392383 1.370860 1.955101
v 2.115342 3.198673 -0.694753
v 1.631495 1.370860 1.955101
v -1.142965 3.739593 -0.599131
v -0.023491 1.827813 1.774778
v 1.402931 3.739593 -0.599131
v 1.262603 1.827813 1.774778
v -2.000000 1.115040 -0.605343
v -2.334620 0.595123 0.433419
v 0.000000 0.500000 -0.132879
v -0.324745 0.361585 0.732601
v 1.500000 0.500000 -0.367669
v 0.927349 0.278136 0.553283
v -0.753661 2.719418 0.000000
v 0.500000 2.717731 0.000000
v 1.000000 3.061597 -0.500000
v 2.500000 0.700000 -0.520775
v 2.500000 0.500000 0.500000
v 2.000000 0.500000 1.000000
v 3.000000 0.263311 1.000000
v -3.500000 0.500000 -0.435296
v -3.059187 0.500000 -0.766352
v 3.732717 -1.767455 1.231120
v 3.732717 1.767455 1.231120
v -0.557320 -2.513243 -1.785945
v 2.827148 -2.513243 -1.785945
v -0.557320 2.513243 -1.785945
v 2.827148 2.513243 -1.785945
v -0.316257 -0.387078 -0.629261
v -0.316257 0.387078 -0.629261
v 0.717299 -0.630172 -0.951931
v 0.717299 0.630172 -0.951931
v 2.300997 -0.301743 0.322919
v 2.300997 -0.422440 -0.357277
v 2.300997 0.301743 0.322919
v 2.300997 0.422440 -0.357277
vt 0.257812 0.007812
vt 0.007812 0.007812
vt 0.007812 0.257812
vt 0.257812 0.257812
vt 0.539062 0.726562
vt 0.789062 0.726562
vt 0.789062 0.671875
vt 0.539062 0.671875
vt 0.656250 0.257812
vt 0.656250 0.007812
vt 0.539062 0.007812
vt 0.539062 0.257812
vt 0.007812 0.859375
vt 0.257812 0.859375
vt 0.257812 0.804688
vt 0.007812 0.804688
vt 0.125000 0.921875
vt 0.125000 0.882812
vt 0.015625 0.921875
vt 0.859375 0.671875
vt 0.804688 0.671875
vt 0.804688 0.789062
vt 0.859375 0.789062
vt 0.859375 0.414062
vt 0.859375 0.523438
vt 0.750000 0.523438
vt 0.593750 0.921875
vt 0.546875 0.921875
vt 0.593750 0.882812
vt 0.523438 0.523438
vt 0.523438 0.406250
vt 0.273438 0.406250
vt 0.273438 0.523438
vt 0.656250 0.539062
vt 0.539062 0.539062
vt 0.539062 0.656250
vt 0.656250 0.656250
vt 0.390625 0.148438
vt 0.390625 0.390625
vt 0.281250 0.390625
vt 0.789062 0.750000
vt 0.789062 0.789062
vt 0.546875 0.789062
vt 0.085938 0.992188
vt 0.125000 0.992188
vt 0.125000 0.953125
vt 0.523438 0.015625
vt 0.523438 0.125000
vt 0.281250 0.125000
vt 0.671875 0.125000
vt 0.781250 0.125000
vt 0.671875 0.015625
vt 0.859375 0.539062
vt 0.742188 0.539062
vt 0.742188 0.656250
vt 0.859375 0.656250
vt 0.257812 0.273438
vt 0.007812 0.273438
vt 0.007812 0.523438
vt 0.257812 0.523438
vt 0.859375 0.007812
vt 0.804688 0.007812
vt 0.804688 0.257812
vt 0.859375 0.257812
vt 0.257812 0.789062
vt 0.257812 0.671875
vt 0.007812 0.671875
vt 0.007812 0.789062
vt 0.726562 0.140625
vt 0.671875 0.140625
vt 0.671875 0.390625
vt 0.726562 0.390625
vt 0.007812 0.914062
vt 0.007812 0.875000
vt 0.117188 0.875000
vt 0.406250 0.921875
vt 0.523438 0.921875
vt 0.523438 0.875000
vt 0.406250 0.875000
vt 0.921875 0.523438
vt 0.882812 0.523438
vt 0.921875 0.414062
vt 0.921875 0.789062
vt 0.921875 0.671875
vt 0.875000 0.671875
vt 0.875000 0.789062
vt 0.273438 0.789062
vt 0.523438 0.789062
vt 0.523438 0.671875
vt 0.273438 0.671875
vt 0.921875 0.257812
vt 0.921875 0.140625
vt 0.875000 0.140625
vt 0.875000 0.257812
vt 0.992188 0.140625
vt 0.937500 0.140625
vt 0.937500 0.195312
vt 0.992188 0.195312
vt 0.273438 0.140625
vt 0.273438 0.382812
vt 0.382812 0.140625
vt 0.273438 0.007812
vt 0.273438 0.117188
vt 0.515625 0.007812
vt 0.234375 0.937500
vt 0.476562 0.937500
vt 0.476562 0.984375
vt 0.078125 0.984375
vt 0.078125 0.937500
vt 0.117188 0.937500
vt 0.539062 0.859375
vt 0.656250 0.859375
vt 0.656250 0.804688
vt 0.539062 0.804688
vt 0.921875 0.546875
vt 0.921875 0.656250
vt 0.882812 0.656250
vt 0.921875 0.007812
vt 0.875000 0.007812
vt 0.875000 0.125000
vt 0.921875 0.125000
vt 0.523438 0.859375
vt 0.523438 0.804688
vt 0.406250 0.804688
vt 0.406250 0.859375
vt 0.992188 0.078125
vt 0.937500 0.078125
vt 0.937500 0.125000
vt 0.992188 0.125000
vt 0.062500 0.937500
vt 0.007812 0.937500
vt 0.007812 0.992188
vt 0.062500 0.992188
vt 0.992188 0.007812
vt 0.937500 0.007812
vt 0.937500 0.062500
vt 0.992188 0.062500
vt 0.812500 0.390625
vt 0.859375 0.390625
vt 0.859375 0.281250
vt 0.750000 0.390625
vt 0.789062 0.390625
vt 0.789062 0.148438
vt 0.257812 0.882812
vt 0.257812 0.921875
vt 0.148438 0.921875
vt 0.390625 0.859375
vt 0.390625 0.812500
vt 0.281250 0.859375
vt 0.851562 0.273438
vt 0.804688 0.382812
vt 0.804688 0.273438
vt 0.273438 0.851562
vt 0.273438 0.804688
vt 0.382812 0.804688
vt 0.781250 0.140625
vt 0.742188 0.382812
vt 0.742188 0.140625
vt 0.914062 0.390625
vt 0.875000 0.390625
vt 0.875000 0.281250
vt 0.210938 0.992188
vt 0.453125 0.992188
vt 0.210938 0.945312
vt 0.726562 0.406250
vt 0.679688 0.406250
vt 0.726562 0.648438
vt 0.789062 0.859375
vt 0.789062 0.812500
vt 0.679688 0.859375
vt 0.671875 0.851562
vt 0.671875 0.804688
vt 0.781250 0.804688
vt 0.656250 0.523438
vt 0.656250 0.273438
vt 0.539062 0.273438
vt 0.539062 0.523438
vt 0.007812 0.656250
vt 0.257812 0.656250
vt 0.257812 0.539062
vt 0.007812 0.539062
vt 0.523438 0.390625
vt 0.523438 0.140625
vt 0.406250 0.140625
vt 0.406250 0.390625
vt 0.273438 0.656250
vt 0.523438 0.656250
vt 0.523438 0.539062
vt 0.273438 0.539062
vt 0.882812 0.273438
vt 0.921875 0.382812
vt 0.921875 0.273438
vt 0.140625 0.875000
vt 0.140625 0.914062
vt 0.250000 0.875000
vt 0.875000 0.539062
vt 0.875000 0.648438
vt 0.914062 0.539062
vt 0.679688 0.007812
vt 0.789062 0.007812
vt 0.789062 0.117188
vt 0.742188 0.406250
vt 0.742188 0.515625
vt 0.851562 0.406250
vt 0.390625 0.882812
vt 0.390625 0.921875
vt 0.281250 0.921875
vt 0.273438 0.914062
vt 0.382812 0.875000
vt 0.273438 0.875000
vt 0.921875 0.875000
vt 0.875000 0.875000
vt 0.875000 0.921875
vt 0.921875 0.921875
vt 0.921875 0.804688
vt 0.875000 0.804688
vt 0.875000 0.859375
vt 0.921875 0.859375
vt 0.859375 0.875000
vt 0.804688 0.875000
vt 0.804688 0.921875
vt 0.859375 0.921875
vt 0.859375 0.812500
vt 0.812500 0.859375
vt 0.859375 0.859375
vt 0.851562 0.804688
vt 0.804688 0.851562
vt 0.804688 0.804688
vt 0.585938 0.875000
vt 0.539062 0.875000
vt 0.539062 0.914062
vt 0.789062 0.875000
vt 0.742188 0.875000
vt 0.742188 0.921875
vt 0.789062 0.921875
vt 0.726562 0.875000
vt 0.671875 0.875000
vt 0.671875 0.921875
vt 0.726562 0.921875
vt 0.195312 0.937500
vt 0.140625 0.937500
vt 0.140625 0.992188
vt 0.195312 0.992188
vt 0.656250 0.875000
vt 0.609375 0.875000
vt 0.609375 0.921875
vt 0.656250 0.921875
vt 0.914062 0.406250
vt 0.875000 0.406250
vt 0.875000 0.515625
vn 0.0000 0.8232 -0.5678
vn 0.5462 -0.6380 0.5428
vn 0.0000 -0.7788 0.6272
vn -0.5071 -0.5526 0.6615
vn -0.3702 0.5487 -0.7496
vn 0.0000 -0.3671 0.9302
vn 0.1519 0.8634 0.4811
vn -0.2470 -0.9670 -0.0626
vn 0.0776 -0.2709 0.9595
vn 0.2299 0.0000 -0.9732
vn -0.2680 -0.0334 -0.9628
vn 0.7894 -0.2637 0.5544
vn -0.1646 -0.9680 0.1897
vn -0.1541 0.0809 -0.9847
vn -0.3240 -0.8836 0.3379
vn 0.1503 0.0000 -0.9886
vn 0.0000 -0.8232 -0.5678
vn 0.5462 0.6380 0.5428
vn 0.0000 0.7788 0.6272
vn -0.5071 0.5526 0.6615
vn -0.3702 -0.5487 -0.7496
vn 0.0000 0.3671 0.9302
vn 0.0856 0.9783 0.1886
vn 0.1418 0.0000 0.9899
vn 0.0779 0.2711 0.9594
vn -0.1513 0.0000 -0.9885
vn -0.6005 0.0000 -0.7996
vn -0.2680 0.0334 -0.9629
vn -0.1541 -0.0810 -0.9847
vn 0.6391 0.1636 0.7516
vn -0.1646 0.9680 0.1897
vn -0.1472 0.0000 0.9891
vn -0.3763 0.7793 -0.5011
vn -0.5977 0.0000 0.8018
vn -0.3845 0.0000 0.9231
vn 0.0000 0.0000 1.0000
vn 0.7071 0.0000 -0.7071
vn 0.7632 -0.6350 -0.1197
vn -0.1430 -0.9793 -0.1430
vn -0.8840 0.2777 -0.3761
vn 0.6438 0.2001 -0.7385
vn -0.0323 0.1364 0.9901
vn -0.1430 0.9793 -0.1430
vn -0.0323 -0.1364 0.9901
vn -0.8840 -0.2777 -0.3761
vn -0.4767 0.7386 -0.4767
vn 0.6391 -0.1634 0.7515
vn 0.7893 0.2640 0.5544
vn 0.5907 -0.7985 -0.1163
vn 0.5907 0.7985 -0.1163
vn 0.0000 0.8468 0.5319
vn 0.0000 -0.8468 0.5319
vn 0.0000 -0.6954 -0.7186
vn 0.0000 0.6954 -0.7186
vn -0.4767 -0.7386 -0.4767
vn 0.6438 -0.2001 -0.7385
vn -0.3763 -0.7793 -0.5011
vn -0.3240 0.8836 0.3379
vn 0.1519 -0.8634 0.4811
vn -0.1330 -0.9792 0.1532
vn -0.1330 0.9792 0.1532
vn -0.2980 0.0000 -0.9546
vn 0.5982 0.0000 -0.8014
vn -0.8434 0.0000 0.5373
vn 0.0283 0.9831 0.1811
vn 0.0283 -0.9831 0.1811
vn -0.2470 0.9670 -0.0626
vn 1.0000 0.0000 0.0000
vn 0.7632 0.6350 -0.1197
vn 0.6648 0.0000 -0.7471
vn 0.6348 0.0000 0.7727
vn 0.0856 -0.9783 0.1886
usemtl Material
s off
f 1/1/1 2/2/1 4/3/1 3/4/1
f 3/5/2 4/6/2 8/7/2 7/8/2
f 7/9/3 8/10/3 6/11/3 5/12/3
f 5/13/4 6/14/4 2/15/4 1/16/4
f 24/17/5 28/18/5 51/19/5
f 8/20/6 4/21/6 2/22/6 6/23/6
f 34/24/7 32/25/7 33/26/7
f 11/27/8 53/28/8 55/29/8
f 14/30/9 12/31/9 15/32/9 16/33/9
f 11/34/10 9/35/10 32/36/10 34/37/10
f 34/38/11 38/39/11 40/40/11
f 13/41/12 14/42/12 16/43/12
f 13/44/13 18/45/13 19/46/13
f 11/47/14 13/48/14 17/49/14
f 9/50/15 10/51/15 22/52/15
f 46/53/16 32/54/16 9/55/16 23/56/16
f 24/57/17 26/58/17 27/59/17 25/60/17
f 26/61/18 30/62/18 31/63/18 27/64/18
f 30/65/19 28/66/19 29/67/19 31/68/19
f 28/69/20 24/70/20 25/71/20 29/72/20
f 5/73/21 1/74/21 49/75/21
f 31/76/22 29/77/22 25/78/22 27/79/22
f 35/80/23 34/81/23 33/82/23
f 12/83/24 14/84/24 37/85/24 35/86/24
f 37/87/25 39/88/25 38/89/25 35/90/25
f 13/91/26 36/92/26 41/93/26 18/94/26
f 46/95/27 23/96/27 22/97/27 45/98/27
f 15/99/28 11/100/28 17/101/28
f 36/102/29 34/103/29 40/104/29
f 36/105/30 40/106/30 39/107/30
f 42/108/31 41/109/31 36/110/31
f 10/111/32 12/112/32 35/113/32 33/114/32
f 32/115/33 46/116/33 45/117/33
f 45/118/34 22/119/34 10/120/34 33/121/34
f 37/122/35 14/123/35 20/124/35 43/125/35
f 21/126/36 44/127/36 43/128/36 20/129/36
f 21/130/37 19/131/37 42/132/37 44/133/37
f 41/134/38 42/135/38 59/136/38 60/137/38
f 19/138/39 20/139/39 14/140/39
f 12/141/40 11/142/40 15/143/40
f 19/144/41 21/145/41 47/146/41
f 21/147/42 20/148/42 47/149/42
f 42/150/43 37/151/43 43/152/43
f 43/153/44 44/154/44 48/155/44
f 35/156/45 38/157/45 34/158/45
f 42/159/46 43/160/46 48/161/46
f 17/162/47 13/163/47 16/164/47
f 37/165/48 36/166/48 39/167/48
f 3/168/49 7/169/49 50/170/49
f 30/171/50 26/172/50 52/173/50
f 1/174/51 3/175/51 50/176/51 49/177/51
f 26/178/52 24/179/52 51/180/52 52/181/52
f 7/182/53 5/183/53 49/184/53 50/185/53
f 28/186/54 30/187/54 52/188/54 51/189/54
f 19/190/55 47/191/55 20/192/55
f 44/193/56 42/194/56 48/195/56
f 23/196/57 9/197/57 22/198/57
f 33/199/58 32/200/58 45/201/58
f 9/202/59 11/203/59 10/204/59
f 14/205/60 13/206/60 19/207/60
f 37/208/61 42/209/61 36/210/61
f 54/211/62 56/212/62 55/213/62 53/214/62
f 36/215/63 13/216/63 55/217/63 56/218/63
f 11/219/64 34/220/64 54/221/64 53/222/64
f 34/223/65 36/224/65 56/225/65
f 13/226/66 11/227/66 55/228/66
f 54/229/67 34/230/67 56/231/67
f 58/232/68 60/233/68 59/234/68 57/235/68
f 19/236/69 18/237/69 58/238/69 57/239/69
f 42/240/70 19/241/70 57/242/70 59/243/70
f 18/244/71 41/245/71 60/246/71 58/247/71
f 11/248/72 12/249/72 10/250/72
